<?xml version="1.0" encoding="UTF-8" standalone="no"?>
<!-- Created with Inkscape (http://www.inkscape.org/) -->

<svg
   version="1.1"
   id="svg2"
   width="128"
   height="128"
   viewBox="0 0 128 128"
   xmlns="http://www.w3.org/2000/svg"
   xmlns:svg="http://www.w3.org/2000/svg">
  <defs
     id="defs6" />
  <g
     id="g8"
     transform="translate(-1.6447369,-1.4544907)">
    <path
       style="fill:#008000;stroke-width:1.05058"
       d="M 19.061771,126.69727 C 15.90168,123.81586 16.344664,122.29719 16.060404,112.49852 15.679533,99.369534 16.457162,98.413027 28.057663,97.741484 37.540685,97.192523 41.369518,95.26413 45.162785,89.1265 47.968733,84.586379 47.898215,79.540871 44.956935,74.397205 41.152077,67.743362 37.912548,65.985834 28.636806,65.543123 17.191424,64.996863 15.819124,63.580107 15.824337,52.315612 c 0.003,-6.546853 -0.511561,-13.479601 2.281795,-15.414763 2.832285,-1.962133 1.150475,-2.011032 20.359294,-2.099606 17.300885,0.165271 17.277313,0.18103 17.277313,-11.565084 0,-10.217822 1.669478,-14.5670392 6.975733,-18.1727324 7.55768,-5.13557709 16.853832,-2.6222082 21.12748,5.7121654 1.882023,3.670271 2.363822,6.358417 2.363822,13.188616 0,5.933912 0.438676,8.942813 1.422883,9.759635 0.86553,0.718323 5.301915,1.117388 11.325736,1.018781 11.092507,-0.181588 13.642527,0.694051 16.720117,5.741417 1.9233,3.154267 2.04126,5.580557 2.04496,42.0615 l 0.004,38.714149 c -0.39821,1.65397 -1.01465,3.28791 -2.46085,4.84565 -1.2206,1.19951 -2.67736,2.09839 -4.68315,2.29834 H 67.102202 23.62072 c -1.918649,-0.25116 -3.411241,-0.85337 -4.57094,-1.72988 z"
       id="path185" />
  </g>
</svg>
