<?xml version="1.0" encoding="UTF-8" standalone="no"?>
<!-- Created with Inkscape (http://www.inkscape.org/) -->

<svg
   id="svg2985"
   version="1.1"
   width="128"
   height="128"
   xml:space="preserve"
   xmlns:xlink="http://www.w3.org/1999/xlink"
   xmlns="http://www.w3.org/2000/svg"
   xmlns:svg="http://www.w3.org/2000/svg"
   xmlns:rdf="http://www.w3.org/1999/02/22-rdf-syntax-ns#"
   xmlns:cc="http://creativecommons.org/ns#"
   xmlns:dc="http://purl.org/dc/elements/1.1/"><metadata
     id="metadata2991"><rdf:RDF><cc:Work
         rdf:about=""><dc:format>image/svg+xml</dc:format><dc:type
           rdf:resource="http://purl.org/dc/dcmitype/StillImage" /></cc:Work></rdf:RDF></metadata><defs
     id="defs2989"><linearGradient
       x1="0"
       y1="0"
       x2="1"
       y2="0"
       gradientUnits="userSpaceOnUse"
       gradientTransform="matrix(-4.02e-6,-91.8907,-91.8907,4.02e-6,85.8809,161.434)"
       spreadMethod="pad"
       id="linearGradient3027"><stop
         style="stop-opacity:1;stop-color:#97d9f6"
         offset="0"
         id="stop3029" /><stop
         style="stop-opacity:1;stop-color:#0f80cc"
         offset="0.920245"
         id="stop3031" /><stop
         style="stop-opacity:1;stop-color:#0f80cc"
         offset="1"
         id="stop3033" /></linearGradient><linearGradient
       xlink:href="#linearGradient3027"
       id="linearGradient5421"
       gradientUnits="userSpaceOnUse"
       gradientTransform="matrix(-4.02e-7,-9.18907,-9.18907,4.02e-7,8.58809,16.1434)"
       spreadMethod="pad"
       x1="-15.614694"
       y1="-9.1082983"
       x2="-6.7410073"
       y2="-9.1082983" /><linearGradient
       xlink:href="#linearGradient3027"
       id="linearGradient3003"
       gradientUnits="userSpaceOnUse"
       gradientTransform="matrix(-2.0917073e-7,-4.7813046,-4.7813046,2.0917073e-7,18.744147,92.341442)"
       spreadMethod="pad"
       x1="-15.614694"
       y1="-9.1082983"
       x2="-6.7410073"
       y2="-9.1082983" /></defs><g
     id="g2993"
     transform="matrix(1.25,0,0,-1.25,-41.57475,299.78375)"><g
       id="g2998"
       transform="matrix(1.5270052,0,0,1.5270052,-15.459659,-23.844584)"><path
         d="m 67.918993,121.19488 c -0.02966,0.37562 -0.04735,0.61971 -0.04735,0.61971 0,0 -1.138992,7.67885 -2.494855,9.97031 -0.214478,0.36324 0.02336,1.85512 0.621944,4.06483 0.349919,-0.60508 1.827122,-3.19328 2.123708,-4.02721 0.334048,-0.94288 0.404292,-1.21303 0.404292,-1.21303 0,0 -0.810146,4.16853 -2.139577,6.60095 0.291382,0.98341 0.63948,2.07037 1.033366,3.23226 0.503675,-0.88352 1.709268,-3.02257 1.974634,-3.76456 0.05359,-0.15245 0.09886,-0.28201 0.139447,-0.40065 0.01301,0.0713 0.02602,0.14257 0.03902,0.21386 -0.304391,1.29144 -0.902244,3.53873 -1.720716,5.19909 1.815935,9.4517 8.009366,22.0852 14.358894,27.72188 H 40.791422 c -2.776038,0 -5.047362,-2.27174 -5.047362,-5.04767 v -45.67894 c 0,-2.77577 2.271324,-5.04715 5.047362,-5.04715 h 27.280546 c -0.196683,2.38111 -0.262244,5.01547 -0.152975,7.55632"
         style="fill:#0f80cc;fill-opacity:1;fill-rule:nonzero;stroke:none;stroke-width:0.520325"
         id="path3005" /><path
         d="m 65.998732,135.84973 c 0.349919,-0.60508 1.827122,-3.19328 2.123708,-4.02721 0.334048,-0.94288 0.404292,-1.21303 0.404292,-1.21303 0,0 -0.810146,4.16853 -2.139577,6.60095 0.291382,0.98341 0.63948,2.07037 1.033366,3.23226 0.460488,-0.80807 1.506862,-2.66407 1.885138,-3.54342 0.01405,0.16598 0.0281,0.33197 0.04267,0.49639 -0.33509,1.28781 -0.843968,2.97366 -1.495415,4.29477 1.672325,8.70243 7.05509,20.09756 12.854114,26.24936 H 40.791422 c -1.971147,0 -3.575206,-1.60364 -3.575206,-3.57515 v -42.3462 c 9.040026,3.46953 19.940422,6.64107 29.321834,6.5051 -0.348254,1.34307 -0.744846,2.55751 -1.161262,3.26135 -0.214478,0.36324 0.02336,1.85512 0.621944,4.06483"
         style="fill:url(#linearGradient3003);fill-opacity:1;fill-rule:nonzero;stroke:none;stroke-width:0.520325"
         id="path3035" /><path
         d="m 91.873203,170.90722 c -2.836813,2.52982 -6.271479,1.51362 -9.661398,-1.4949 -0.503154,-0.44696 -1.005268,-0.94283 -1.50478,-1.47252 -5.799024,-6.1518 -11.181789,-17.54693 -12.854114,-26.24936 0.651447,-1.32111 1.160325,-3.00696 1.495415,-4.29477 0.08585,-0.33041 0.163382,-0.64052 0.225301,-0.90432 0.147252,-0.62434 0.226341,-1.02921 0.226341,-1.02921 0,0 -0.05203,0.19674 -0.265366,0.81535 -0.04059,0.11864 -0.08585,0.2482 -0.139447,0.40065 -0.02289,0.063 -0.05463,0.13945 -0.0895,0.22114 -0.378276,0.87935 -1.42465,2.73535 -1.885138,3.54342 -0.393886,-1.16189 -0.741984,-2.24885 -1.033366,-3.23226 1.329431,-2.43242 2.139577,-6.60095 2.139577,-6.60095 0,0 -0.07024,0.27015 -0.404292,1.21303 -0.296586,0.83393 -1.773789,3.42213 -2.123708,4.02721 -0.598582,-2.20971 -0.836422,-3.70159 -0.621944,-4.06483 0.416416,-0.70384 0.813008,-1.91828 1.161262,-3.26135 0.786731,-3.02563 1.333593,-6.70896 1.333593,-6.70896 0,0 0.01769,-0.24409 0.04735,-0.61971 -0.109269,-2.54085 -0.04371,-5.17521 0.152975,-7.55632 0.260683,-3.15203 0.75135,-5.85975 1.376781,-7.3089 l 0.424585,0.23149 c -0.918374,2.85507 -1.291447,6.59673 -1.128065,10.91179 0.247154,6.59569 1.764943,14.5498 4.569496,22.84019 4.738081,12.51487 11.311869,22.5561 17.32839,27.35142 -5.483708,-4.95246 -12.905626,-20.98316 -15.127415,-26.91955 -2.487674,-6.64767 -4.250536,-12.8859 -5.31304,-18.86272 1.833105,5.60323 7.76013,8.01176 7.76013,8.01176 0,0 2.907057,3.5852 6.30426,8.70722 -2.034992,-0.46413 -5.37652,-1.25866 -6.49574,-1.72904 -1.650992,-0.69255 -2.09587,-0.92878 -2.09587,-0.92878 0,0 5.347903,3.25672 9.93613,4.73132 6.309984,9.93821 13.184524,24.05672 6.261593,30.23246"
         style="fill:#003b57;fill-opacity:1;fill-rule:nonzero;stroke:none;stroke-width:0.520325"
         id="path3045" /></g></g></svg>
