<?xml version="1.0" encoding="UTF-8" standalone="no"?>
<!-- Created with Inkscape (http://www.inkscape.org/) -->

<svg
   version="1.1"
   id="svg2"
   width="128"
   height="128"
   viewBox="0 0 128 128"
   xmlns="http://www.w3.org/2000/svg"
   xmlns:svg="http://www.w3.org/2000/svg">
  <defs
     id="defs6" />
  <g
     id="g8">
    <path
       style="fill:#ffffff;stroke:#ffffff;stroke-width:1px;stroke-linecap:butt;stroke-linejoin:miter;stroke-opacity:1"
       d="M 20.88142,3.9264418 21.765483,124.84957 107.43549,124.0454 107.14017,29.094159 82.925779,3.433208 Z"
       id="path3549" />
    <path
       style="fill:#fbdb07;fill-opacity:1;stroke-width:0.250154"
       d="m 20.728285,128.13151 c -1.133273,-0.59117 -1.89205,-1.37538 -2.403958,-2.48454 -0.430439,-0.93263 -0.462185,-1.90558 -0.467306,-14.32125 l -0.0055,-13.320639 -2.313916,-2e-4 c -2.026109,-1.7e-4 -2.501935,-0.0891 -3.825588,-0.715342 -1.70372,-0.806005 -2.6739306,-1.819669 -3.5356706,-3.694017 l -0.5897028,-1.282649 0.06684,-20.480649 0.06684,-20.480646 0.6230218,-1.219939 c 0.780349,-1.527997 2.4304536,-3.000451 3.9381666,-3.514178 0.708539,-0.241425 2.011018,-0.394017 3.363188,-0.394017 h 2.206814 V 25.263609 4.3037744 l 0.562842,-1.101653 c 0.309585,-0.6059106 0.995429,-1.4458876 1.524118,-1.8666148 l 0.961254,-0.76495754 31.785803,-0.06538 c 28.277784,-0.058166 31.850714,-0.022848 32.373984,0.3200105 0.6127,0.40145684 24.994365,28.10036944 25.527325,29.00044744 0.22065,0.372634 0.30625,2.687532 0.31269,8.455464 l 0.009,7.942353 h 2.20681 c 1.35217,0 2.65465,0.152592 3.36318,0.394017 1.50772,0.513727 3.15783,1.986181 3.93817,3.514178 l 0.62303,1.219939 0.0668,20.480646 0.0668,20.480649 -0.64383,1.407725 c -0.84666,1.851204 -1.67136,2.693134 -3.4923,3.565248 -1.31883,0.631635 -1.78164,0.718865 -3.81483,0.719035 l -2.31391,2e-4 v 13.330179 13.33017 l -0.56285,1.10165 c -0.30956,0.60591 -0.99541,1.44589 -1.52411,1.86661 l -0.96128,0.76496 -43.190706,0.0622 c -38.780341,0.0558 -43.267337,0.0222 -43.941163,-0.32931 z M 105.65518,110.01242 V 98.005081 H 64.379955 23.104735 v 12.007339 12.00733 h 41.27522 41.275225 z M 51.279763,89.857636 c 2.770971,-0.765179 5.076598,-3.1418 6.159998,-6.349673 0.541651,-1.603797 0.554731,-1.939713 0.631025,-16.209142 l 0.07791,-14.571402 h -3.138189 -3.138191 v 13.726954 c 0,11.696744 -0.05675,13.887794 -0.383685,14.814434 -0.946756,2.683392 -3.034927,3.510487 -6.505499,2.576738 -0.820016,-0.220626 -1.646969,-0.41762 -1.837676,-0.437769 -0.498967,-0.05272 -2.121281,4.804827 -1.752936,5.248655 0.388155,0.467696 2.84632,1.339736 4.463771,1.583531 1.646542,0.248178 3.652233,0.106787 5.423475,-0.382326 z m 27.932602,-0.0023 c 3.12114,-0.755149 5.87025,-2.691126 7.26264,-5.114497 1.60485,-2.793143 1.88434,-7.517288 0.6095,-10.301922 -1.40652,-3.072249 -3.53426,-4.532268 -9.36385,-6.425329 -2.04363,-0.663637 -4.17531,-1.441088 -4.73705,-1.727668 -3.69707,-1.886102 -3.684779,-6.145738 0.0222,-7.694257 2.15841,-0.901633 6.62459,-0.713881 10.34741,0.434991 0.87319,0.269473 1.62313,0.453922 1.66652,0.409894 0.0434,-0.04403 0.46849,-1.282426 0.94467,-2.751993 l 0.86578,-2.671934 -1.77386,-0.657504 c -2.66194,-0.986691 -4.90635,-1.378541 -7.87239,-1.374437 -4.52348,0.0062 -7.44604,1.000579 -10.063408,3.423799 -4.119857,3.814261 -4.608235,10.86829 -1.008336,14.564171 1.496713,1.536615 3.772615,2.69332 8.208024,4.171649 3.82063,1.27342 5.2045,1.971069 6.15828,3.104578 1.87348,2.226502 0.65599,5.572372 -2.35728,6.478225 -2.6332,0.791597 -8.662504,0.07547 -12.075491,-1.434262 l -1.114572,-0.493026 -0.79075,2.494439 c -0.434913,1.371944 -0.845697,2.63763 -0.912854,2.812637 -0.16204,0.422271 2.786544,1.73328 5.45259,2.424354 3.741338,0.9698 7.407877,1.084016 10.532237,0.328092 z M 105.65518,39.969616 V 33.715795 H 94.152095 82.649005 l -0.81694,-0.729781 -0.81694,-0.729782 -0.071,-13.278777 -0.071,-13.2787803 h -28.88416 -28.88423 v 20.2623823 20.26238 h 41.27522 41.275225 z"
       id="path293" />
  </g>
</svg>
