<?xml version="1.0" encoding="UTF-8" standalone="no"?>
<!-- Created with Inkscape (http://www.inkscape.org/) -->

<svg
   xmlns:dc="http://purl.org/dc/elements/1.1/"
   xmlns:cc="http://creativecommons.org/ns#"
   xmlns:rdf="http://www.w3.org/1999/02/22-rdf-syntax-ns#"
   xmlns:svg="http://www.w3.org/2000/svg"
   xmlns="http://www.w3.org/2000/svg"
   xmlns:sodipodi="http://sodipodi.sourceforge.net/DTD/sodipodi-0.dtd"
   xmlns:inkscape="http://www.inkscape.org/namespaces/inkscape"
   width="31.75mm"
   height="24.804688mm"
   viewBox="0 0 31.75 24.804688"
   version="1.1"
   id="svg8"
   sodipodi:docname="drawing.svg"
   inkscape:version="0.92.1 r15371">
  <defs
     id="defs2" />
  <sodipodi:namedview
     id="base"
     pagecolor="#ffffff"
     bordercolor="#666666"
     borderopacity="1.0"
     inkscape:pageopacity="0.0"
     inkscape:pageshadow="2"
     inkscape:zoom="0.35"
     inkscape:cx="-88.393588"
     inkscape:cy="307.78545"
     inkscape:document-units="mm"
     inkscape:current-layer="layer1"
     showgrid="false"
     inkscape:window-width="1280"
     inkscape:window-height="734"
     inkscape:window-x="0"
     inkscape:window-y="0"
     inkscape:window-maximized="1" />
  <metadata
     id="metadata5">
    <rdf:RDF>
      <cc:Work
         rdf:about="">
        <dc:format>image/svg+xml</dc:format>
        <dc:type
           rdf:resource="http://purl.org/dc/dcmitype/StillImage" />
      </cc:Work>
    </rdf:RDF>
  </metadata>
  <g
     inkscape:label="Layer 1"
     inkscape:groupmode="layer"
     id="layer1"
     transform="translate(-98.146812,-197.87269)">
    <g
       transform="matrix(0.24804687,0,0,0.24804687,98.146812,197.87269)"
       id="g81">
      <path
         style="fill:#000000;fill-opacity:0"
         d="M 0,0.5 V 0 H 0.5 1 1.5 2 2.5 3 3.5 4 4.5 5 5.5 6 6.5 7 7.5 8 8.5 9 9.5 10 h 0.5 0.5 0.5 0.5 0.5 0.5 0.5 0.5 0.5 0.5 0.5 0.5 0.5 0.5 0.5 0.5 0.5 0.5 0.5 0.5 0.5 0.5 0.5 0.5 0.5 0.5 0.5 0.5 0.5 0.5 0.5 0.5 0.5 0.5 0.5 0.5 0.5 0.5 0.5 0.5 0.5 0.5 0.5 0.5 0.5 0.5 0.5 0.5 0.5 0.5 0.5 0.5 0.5 0.5 0.5 0.5 0.5 0.5 0.5 0.5 0.5 0.5 0.5 0.5 0.5 0.5 0.5 0.5 0.5 0.5 0.5 0.5 0.5 0.5 0.5 0.5 0.5 0.5 0.5 0.5 0.5 0.5 0.5 0.5 0.5 0.5 0.5 0.5 0.5 0.5 0.5 0.5 0.5 0.5 0.5 0.5 0.5 0.5 0.5 0.5 0.5 0.5 0.5 0.5 0.5 0.5 0.5 0.5 0.5 0.5 0.5 0.5 0.5 0.5 0.5 0.5 0.5 0.5 0.5 0.5 0.5 0.5 0.5 0.5 0.5 0.5 0.5 0.5 0.5 0.5 0.5 0.5 0.5 0.5 0.5 0.5 0.5 0.5 0.5 0.5 0.5 0.5 0.5 0.5 0.5 0.5 0.5 0.5 0.5 0.5 0.5 0.5 0.5 0.5 0.5 0.5 0.5 0.5 0.5 0.5 0.5 0.5 0.5 0.5 0.5 0.5 0.5 0.5 0.5 0.5 0.5 0.5 0.5 0.5 0.5 0.5 0.5 0.5 0.5 0.5 0.5 0.5 0.5 0.5 0.5 0.5 0.5 0.5 0.5 0.5 0.5 0.5 0.5 0.5 0.5 0.5 0.5 0.5 0.5 0.5 0.5 0.5 0.5 0.5 0.5 0.5 0.5 0.5 0.5 0.5 0.5 0.5 0.5 0.5 0.5 0.5 0.5 0.5 0.5 0.5 0.5 0.5 0.5 0.5 0.5 0.5 0.5 0.5 0.5 0.5 0.5 0.5 0.5 0.5 0.5 0.5 V 0.5 1 1.5 2 2.5 3 3.5 4 4.5 5 5.5 6 6.5 7 7.5 8 8.5 9 9.5 10 10.5 11 11.5 12 12.5 13 13.5 14 14.5 15 15.5 16 16.5 17 17.5 18 18.5 19 19.5 20 20.5 21 21.5 22 22.5 23 23.5 24 24.5 25 25.5 26 26.5 27 27.5 28 28.5 29 29.5 30 30.5 31 31.5 32 32.5 33 33.5 34 34.5 35 35.5 36 36.5 37 37.5 38 38.5 39 39.5 40 40.5 41 41.5 42 42.5 43 43.5 44 44.5 45 45.5 46 46.5 47 47.5 48 48.5 49 49.5 50 50.5 51 51.5 52 52.5 53 53.5 54 54.5 55 55.5 56 56.5 57 57.5 58 58.5 59 59.5 60 60.5 61 61.5 62 62.5 63 63.5 64 64.5 65 65.5 66 66.5 67 67.5 68 68.5 69 69.5 70 70.5 71 71.5 72 72.5 73 73.5 74 74.5 75 75.5 76 76.5 77 77.5 78 78.5 79 79.5 80 80.5 81 81.5 82 82.5 83 83.5 84 84.5 85 85.5 86 86.5 87 87.5 88 88.5 89 89.5 90 90.5 91 91.5 92 92.5 93 93.5 94 94.5 95 95.5 96 96.5 97 97.5 98 98.5 99 99.5 100 H 127.5 127 126.5 126 125.5 125 124.5 124 123.5 123 122.5 122 121.5 121 120.5 120 119.5 119 118.5 118 117.5 117 116.5 116 115.5 115 114.5 114 113.5 113 112.5 112 111.5 111 110.5 110 109.5 109 108.5 108 107.5 107 106.5 106 105.5 105 104.5 104 103.5 103 102.5 102 101.5 101 100.5 100 99.5 99 98.5 98 97.5 97 96.5 96 95.5 95 94.5 94 93.5 93 92.5 92 91.5 91 90.5 90 89.5 89 88.5 88 87.5 87 86.5 86 85.5 85 84.5 84 83.5 83 82.5 82 81.5 81 80.5 80 79.5 79 78.5 78 77.5 77 76.5 76 75.5 75 74.5 74 73.5 73 72.5 72 71.5 71 70.5 70 69.5 69 68.5 68 67.5 67 66.5 66 65.5 65 64.5 64 63.5 63 62.5 62 61.5 61 60.5 60 59.5 59 58.5 58 57.5 57 56.5 56 55.5 55 54.5 54 53.5 53 52.5 52 51.5 51 50.5 50 49.5 49 48.5 48 47.5 47 46.5 46 45.5 45 44.5 44 43.5 43 42.5 42 41.5 41 40.5 40 39.5 39 38.5 38 37.5 37 36.5 36 35.5 35 34.5 34 33.5 33 32.5 32 31.5 31 30.5 30 29.5 29 28.5 28 27.5 27 26.5 26 25.5 25 24.5 24 23.5 23 22.5 22 21.5 21 20.5 20 19.5 19 18.5 18 17.5 17 16.5 16 15.5 15 14.5 14 13.5 13 12.5 12 11.5 11 10.5 10 9.5 9 8.5 8 7.5 7 6.5 6 5.5 5 4.5 4 3.5 3 2.5 2 1.5 1 0.5 0 V 99.5 99 98.5 98 97.5 97 96.5 96 95.5 95 94.5 94 93.5 93 92.5 92 91.5 91 90.5 90 89.5 89 88.5 88 87.5 87 86.5 86 85.5 85 84.5 84 83.5 83 82.5 82 81.5 81 80.5 80 79.5 79 78.5 78 77.5 77 76.5 76 75.5 75 74.5 74 73.5 73 72.5 72 71.5 71 70.5 70 69.5 69 68.5 68 67.5 67 66.5 66 65.5 65 64.5 64 63.5 63 62.5 62 61.5 61 60.5 60 59.5 59 58.5 58 57.5 57 56.5 56 55.5 55 54.5 54 53.5 53 52.5 52 51.5 51 50.5 50 49.5 49 48.5 48 47.5 47 46.5 46 45.5 45 44.5 44 43.5 43 42.5 42 41.5 41 40.5 40 39.5 39 38.5 38 37.5 37 36.5 36 35.5 35 34.5 34 33.5 33 32.5 32 31.5 31 30.5 30 29.5 29 28.5 28 27.5 27 26.5 26 25.5 25 24.5 24 23.5 23 22.5 22 21.5 21 20.5 20 19.5 19 18.5 18 17.5 17 16.5 16 15.5 15 14.5 14 13.5 13 12.5 12 11.5 11 10.5 10 9.5 9 8.5 8 7.5 7 6.5 6 5.5 5 4.5 4 3.5 3 2.5 2 1.5 1 0.5 M 76.5,92 Q 77,92 77,91.5 77,91 77.5,91 78,91 78,90.5 78,90 78,89.5 78,89 78.5,89 79,89 79,88.5 79,88 79,87.5 79,87 79.5,87 80,87 80,86.5 80,86 80,85.5 80,85 80.5,85 81,85 81,84.5 81,84 81,83.5 81,83 81.5,83 82,83 82,82.5 82,82 82,81.5 82,81 82.5,81 83,81 83,80.5 83,80 83,79.5 83,79 83.5,79 84,79 84,78.5 84,78 84,77.5 84,77 84.5,77 85,77 85,76.5 85,76 85,75.5 85,75 85.5,75 86,75 86,74.5 86,74 86,73.5 86,73 86.5,73 87,73 87,72.5 87,72 87,71.5 87,71 87.5,71 88,71 88,70.5 88,70 88,69.5 88,69 88.5,69 89,69 89,68.5 89,68 89,67.5 89,67 89.5,67 90,67 90,66.5 90,66 90,65.5 90,65 90.5,65 91,65 91,64.5 91,64 91,63.5 91,63 91.5,63 92,63 92,62.5 92,62 92,61.5 92,61 92.5,61 93,61 93,60.5 93,60 93,59.5 93,59 93.5,59 94,59 94,58.5 94,58 94,57.5 94,57 94.5,57 95,57 95,56.5 95,56 95.5,56 96,56 96,55.5 96,55 96,54.5 96,54 96.5,54 97,54 97,53.5 97,53 97,52.5 97,52 97.5,52 98,52 98,51.5 98,51 98,50.5 98,50 98.5,50 99,50 99,49.5 q 0,-0.5 0,-1 0,-0.5 0.5,-0.5 0.5,0 0.5,-0.5 0,-0.5 0,-1 0,-0.5 0.5,-0.5 0.5,0 0.5,-0.5 0,-0.5 0,-1 0,-0.5 0.5,-0.5 0.5,0 0.5,-0.5 0,-0.5 0,-1 0,-0.5 0.5,-0.5 0.5,0 0.5,-0.5 0,-0.5 0,-1 0,-0.5 0.5,-0.5 0.5,0 0.5,-0.5 0,-0.5 0,-1 0,-0.5 0.5,-0.5 0.5,0 0.5,-0.5 0,-0.5 0,-1 0,-0.5 0.5,-0.5 0.5,0 0.5,-0.5 0,-0.5 0,-1 0,-0.5 0.5,-0.5 0.5,0 0.5,-0.5 0,-0.5 0,-1 0,-0.5 0.5,-0.5 0.5,0 0.5,-0.5 0,-0.5 0,-1 0,-0.5 0.5,-0.5 0.5,0 0.5,-0.5 0,-0.5 0,-1 0,-0.5 0.5,-0.5 0.5,0 0.5,-0.5 0,-0.5 0,-1 0,-0.5 0.5,-0.5 0.5,0 0.5,-0.5 0,-0.5 0.5,-0.5 0.5,0 1,0 0.5,0 1,0 0.5,0 1,0 0.5,0 1,0 0.5,0 1,0 0.5,0 1,0 0.5,0 0.5,-0.5 0,-0.5 0,-1 0,-0.5 0,-1 0,-0.5 0,-1 0,-0.5 0,-1 0,-0.5 0,-1 0,-0.5 0,-1 0,-0.5 0,-1 0,-0.5 0,-1 0,-0.5 0,-1 0,-0.5 0,-1 0,-0.5 0,-1 0,-0.5 0,-1 0,-0.5 0,-1 0,-0.5 0,-1 0,-0.5 0,-1 0,-0.5 -0.5,-0.5 -0.5,0 -1,0 -0.5,0 -1,0 -0.5,0 -1,0 -0.5,0 -1,0 -0.5,0 -1,0 -0.5,0 -1,0 -0.5,0 -1,0 -0.5,0 -1,0 -0.5,0 -1,0 -0.5,0 -1,0 -0.5,0 -1,0 -0.5,0 -1,0 -0.5,0 -1,0 -0.5,0 -1,0 -0.5,0 -1,0 -0.5,0 -1,0 -0.5,0 -1,0 -0.5,0 -1,0 -0.5,0 -1,0 -0.5,0 -1,0 -0.5,0 -1,0 -0.5,0 -1,0 -0.5,0 -1,0 -0.5,0 -1,0 -0.5,0 -1,0 -0.5,0 -1,0 -0.5,0 -1,0 -0.5,0 -1,0 -0.5,0 -1,0 -0.5,0 -1,0 -0.5,0 -1,0 -0.5,0 -1,0 -0.5,0 -1,0 -0.5,0 -1,0 -0.5,0 -1,0 -0.5,0 -0.5,0.5 0,0.5 0,1 0,0.5 0,1 0,0.5 0,1 0,0.5 0,1 0,0.5 0,1 0,0.5 0,1 0,0.5 0,1 0,0.5 0,1 0,0.5 0,1 0,0.5 0,1 0,0.5 0,1 0,0.5 0,1 0,0.5 0,1 0,0.5 0,1 0,0.5 0,1 0,0.5 0.5,0.5 0.5,0 1,0 0.5,0 1,0 0.5,0 1,0 0.5,0 1,0 0.5,0 1,0 0.5,0 1,0 0.5,0 0.5,0.5 0,0.5 0,1 0,0.5 -0.5,0.5 -0.5,0 -0.5,0.5 0,0.5 0,1 Q 88,29 87.5,29 87,29 87,29.5 87,30 86.5,30 86,30 86,30.5 q 0,0.5 0,1 0,0.5 -0.5,0.5 -0.5,0 -0.5,0.5 0,0.5 0,1 0,0.5 -0.5,0.5 -0.5,0 -0.5,0.5 0,0.5 0,1 0,0.5 -0.5,0.5 -0.5,0 -0.5,0.5 0,0.5 0,1 Q 83,38 82.5,38 82,38 82,38.5 82,39 81.5,39 81,39 81,39.5 q 0,0.5 0,1 0,0.5 -0.5,0.5 -0.5,0 -0.5,0.5 0,0.5 0,1 0,0.5 -0.5,0.5 -0.5,0 -0.5,0.5 0,0.5 0,1 0,0.5 -0.5,0.5 -0.5,0 -0.5,0.5 0,0.5 0,1 Q 78,47 77.5,47 77,47 77,47.5 77,48 76.5,48 76,48 76,48.5 q 0,0.5 0,1 0,0.5 -0.5,0.5 -0.5,0 -0.5,0.5 0,0.5 0,1 0,0.5 -0.5,0.5 -0.5,0 -0.5,0.5 0,0.5 0,1 0,0.5 -0.5,0.5 -0.5,0 -0.5,0.5 0,0.5 0,1 0,0.5 -0.5,0.5 -0.5,0 -0.5,-0.5 0,-0.5 0,-1 0,-0.5 0,-1 0,-0.5 0,-1 0,-0.5 0,-1 0,-0.5 0,-1 0,-0.5 0,-1 0,-0.5 0,-1 0,-0.5 0,-1 0,-0.5 0,-1 0,-0.5 0,-1 0,-0.5 0,-1 0,-0.5 0,-1 0,-0.5 0,-1 0,-0.5 0,-1 0,-0.5 0,-1 0,-0.5 0,-1 0,-0.5 0,-1 0,-0.5 0,-1 0,-0.5 0,-1 0,-0.5 0,-1 0,-0.5 0,-1 0,-0.5 0,-1 0,-0.5 0,-1 0,-0.5 0,-1 0,-0.5 0,-1 0,-0.5 0,-1 0,-0.5 0,-1 0,-0.5 0,-1 0,-0.5 0,-1 0,-0.5 0,-1 0,-0.5 0,-1 0,-0.5 0,-1 0,-0.5 0,-1 0,-0.5 0,-1 0,-0.5 0,-1 0,-0.5 0,-1 0,-0.5 0,-1 0,-0.5 0,-1 0,-0.5 0,-1 0,-0.5 0,-1 0,-0.5 0,-1 0,-0.5 0,-1 0,-0.5 0,-1 0,-0.5 0,-1 0,-0.5 0,-1 0,-0.5 -0.5,-0.5 -0.5,0 -1,0 -0.5,0 -1,0 -0.5,0 -1,0 -0.5,0 -1,0 -0.5,0 -1,0 -0.5,0 -1,0 -0.5,0 -1,0 -0.5,0 -1,0 -0.5,0 -1,0 -0.5,0 -1,0 -0.5,0 -1,0 -0.5,0 -1,0 -0.5,0 -1,0 -0.5,0 -1,0 -0.5,0 -0.5,0.5 0,0.5 0,1 0,0.5 0,1 0,0.5 0,1 0,0.5 0,1 0,0.5 -0.5,0.5 -0.5,0 -0.5,0.5 0,0.5 0,1 0,0.5 -0.5,0.5 -0.5,0 -0.5,0.5 0,0.5 0,1 0,0.5 -0.5,0.5 -0.5,0 -0.5,0.5 0,0.5 0,1 0,0.5 -0.5,0.5 -0.5,0 -0.5,0.5 0,0.5 0,1 0,0.5 0,1 0,0.5 -0.5,0.5 -0.5,0 -0.5,0.5 0,0.5 0,1 0,0.5 -0.5,0.5 -0.5,0 -0.5,0.5 0,0.5 0,1 0,0.5 -0.5,0.5 -0.5,0 -0.5,0.5 0,0.5 0,1 0,0.5 -0.5,0.5 -0.5,0 -0.5,0.5 0,0.5 0,1 0,0.5 -0.5,0.5 -0.5,0 -0.5,0.5 0,0.5 0,1 0,0.5 -0.5,0.5 -0.5,0 -0.5,0.5 0,0.5 0,1 0,0.5 0,1 0,0.5 -0.5,0.5 -0.5,0 -0.5,0.5 0,0.5 0,1 0,0.5 -0.5,0.5 -0.5,0 -0.5,0.5 0,0.5 0,1 0,0.5 -0.5,0.5 -0.5,0 -0.5,0.5 0,0.5 0,1 0,0.5 -0.5,0.5 -0.5,0 -0.5,0.5 0,0.5 0,1 0,0.5 -0.5,0.5 -0.5,0 -0.5,0.5 0,0.5 0,1 0,0.5 0,1 0,0.5 -0.5,0.5 -0.5,0 -0.5,0.5 0,0.5 0,1 0,0.5 -0.5,0.5 -0.5,0 -0.5,0.5 0,0.5 0,1 0,0.5 -0.5,0.5 -0.5,0 -0.5,0.5 0,0.5 0,1 0,0.5 -0.5,0.5 -0.5,0 -0.5,0.5 0,0.5 0,1 0,0.5 -0.5,0.5 -0.5,0 -0.5,-0.5 0,-0.5 0,-1 0,-0.5 0,-1 0,-0.5 0,-1 0,-0.5 0,-1 0,-0.5 0,-1 0,-0.5 0,-1 0,-0.5 0,-1 0,-0.5 0,-1 0,-0.5 0,-1 0,-0.5 0,-1 0,-0.5 0,-1 0,-0.5 0,-1 0,-0.5 0,-1 0,-0.5 0,-1 0,-0.5 0,-1 0,-0.5 0,-1 0,-0.5 0,-1 0,-0.5 0,-1 0,-0.5 0,-1 0,-0.5 0,-1 0,-0.5 0,-1 0,-0.5 0,-1 0,-0.5 0,-1 0,-0.5 0,-1 0,-0.5 0,-1 0,-0.5 0,-1 0,-0.5 0,-1 0,-0.5 0,-1 0,-0.5 0,-1 0,-0.5 0,-1 0,-0.5 0.5,-0.5 0.5,0 1,0 0.5,0 1,0 0.5,0 1,0 0.5,0 1,0 0.5,0 1,0 0.5,0 1,0 0.5,0 1,0 0.5,0 1,0 0.5,0 1,0 0.5,0 1,0 0.5,0 0.5,-0.5 0,-0.5 0,-1 0,-0.5 0,-1 0,-0.5 0,-1 0,-0.5 0,-1 0,-0.5 0,-1 0,-0.5 0,-1 0,-0.5 0,-1 0,-0.5 0,-1 0,-0.5 0,-1 0,-0.5 0,-1 0,-0.5 0,-1 0,-0.5 0,-1 0,-0.5 0,-1 0,-0.5 0,-1 0,-0.5 0,-1 Q 48,9 47.5,9 47,9 46.5,9 46,9 45.5,9 45,9 44.5,9 44,9 43.5,9 43,9 42.5,9 42,9 41.5,9 41,9 40.5,9 40,9 39.5,9 39,9 38.5,9 38,9 37.5,9 37,9 36.5,9 36,9 35.5,9 35,9 34.5,9 34,9 33.5,9 33,9 32.5,9 32,9 31.5,9 31,9 30.5,9 30,9 29.5,9 29,9 28.5,9 28,9 27.5,9 27,9 26.5,9 26,9 25.5,9 25,9 24.5,9 24,9 23.5,9 23,9 22.5,9 22,9 21.5,9 21,9 20.5,9 20,9 19.5,9 19,9 18.5,9 18,9 17.5,9 17,9 16.5,9 16,9 15.5,9 15,9 14.5,9 14,9 13.5,9 13,9 12.5,9 12,9 11.5,9 11,9 10.5,9 10,9 9.5,9 9,9 8.5,9 8,9 7.5,9 7,9 6.5,9 6,9 6,9.5 q 0,0.5 0,1 0,0.5 0,1 0,0.5 0,1 0,0.5 0,1 0,0.5 0,1 0,0.5 0,1 0,0.5 0,1 0,0.5 0,1 0,0.5 0,1 0,0.5 0,1 0,0.5 0,1 0,0.5 0,1 0,0.5 0,1 0,0.5 0,1 0,0.5 0,1 0,0.5 0.5,0.5 0.5,0 1,0 0.5,0 1,0 0.5,0 1,0 0.5,0 1,0 0.5,0 1,0 0.5,0 1,0 0.5,0 1,0 0.5,0 1,0 0.5,0 0.5,0.5 0,0.5 0,1 0,0.5 0,1 0,0.5 0,1 0,0.5 0,1 0,0.5 0,1 0,0.5 0,1 0,0.5 0,1 0,0.5 0,1 0,0.5 0,1 0,0.5 0,1 0,0.5 0,1 0,0.5 0,1 0,0.5 0,1 0,0.5 0,1 0,0.5 0,1 0,0.5 0,1 0,0.5 0,1 0,0.5 0,1 0,0.5 0,1 0,0.5 0,1 0,0.5 0,1 0,0.5 0,1 0,0.5 0,1 0,0.5 0,1 0,0.5 0,1 0,0.5 0,1 0,0.5 0,1 0,0.5 0,1 0,0.5 0,1 0,0.5 0,1 0,0.5 0,1 0,0.5 0,1 0,0.5 0,1 0,0.5 0,1 0,0.5 0,1 0,0.5 0,1 0,0.5 0,1 0,0.5 0,1 0,0.5 0,1 0,0.5 0,1 0,0.5 0,1 0,0.5 0,1 0,0.5 0,1 0,0.5 0,1 0,0.5 0,1 0,0.5 0,1 0,0.5 0,1 0,0.5 0,1 0,0.5 0,1 0,0.5 0,1 0,0.5 0,1 0,0.5 0,1 0,0.5 0,1 0,0.5 0,1 0,0.5 0,1 0,0.5 0,1 0,0.5 0,1 0,0.5 0,1 0,0.5 0,1 0,0.5 0,1 0,0.5 0,1 0,0.5 0,1 0,0.5 0,1 0,0.5 0,1 0,0.5 0,1 0,0.5 0,1 0,0.5 0.5,0.5 0.5,0 1,0 0.5,0 1,0 0.5,0 1,0 0.5,0 1,0 0.5,0 1,0 0.5,0 1,0 0.5,0 1,0 0.5,0 1,0 0.5,0 1,0 0.5,0 1,0 0.5,0 1,0 0.5,0 1,0 0.5,0 1,0 0.5,0 1,0 0.5,0 1,0 0.5,0 1,0 0.5,0 1,0 0.5,0 1,0 0.5,0 1,0 0.5,0 1,0 0.5,0 1,0 0.5,0 1,0 0.5,0 1,0 0.5,0 1,0 0.5,0 0.5,-0.5 0,-0.5 0,-1 0,-0.5 0,-1 Q 40,89 40.5,89 41,89 41,88.5 41,88 41,87.5 41,87 41.5,87 42,87 42,86.5 42,86 42,85.5 42,85 42.5,85 43,85 43,84.5 43,84 43,83.5 43,83 43.5,83 44,83 44,82.5 44,82 44,81.5 44,81 44.5,81 45,81 45,80.5 45,80 45,79.5 45,79 45.5,79 46,79 46,78.5 46,78 46,77.5 46,77 46.5,77 47,77 47,76.5 47,76 47,75.5 47,75 47.5,75 48,75 48,74.5 48,74 48,73.5 48,73 48.5,73 49,73 49,72.5 49,72 49,71.5 49,71 49.5,71 50,71 50,70.5 50,70 50,69.5 50,69 50.5,69 51,69 51,68.5 q 0,-0.5 0,-1 0,-0.5 0.5,-0.5 0.5,0 0.5,0.5 0,0.5 0,1 0,0.5 0,1 0,0.5 0,1 0,0.5 0,1 0,0.5 0,1 0,0.5 0,1 0,0.5 0,1 0,0.5 0,1 0,0.5 0,1 0,0.5 0,1 0,0.5 0,1 0,0.5 0,1 0,0.5 0,1 0,0.5 0,1 0,0.5 0,1 0,0.5 0,1 0,0.5 0,1 0,0.5 0,1 0,0.5 0,1 0,0.5 0,1 0,0.5 0,1 0,0.5 0,1 0,0.5 0,1 0,0.5 0,1 0,0.5 0.5,0.5 0.5,0 1,0 0.5,0 1,0 0.5,0 1,0 0.5,0 1,0 0.5,0 1,0 0.5,0 1,0 0.5,0 1,0 0.5,0 1,0 0.5,0 1,0 0.5,0 1,0 0.5,0 1,0 0.5,0 1,0 0.5,0 1,0 0.5,0 1,0 0.5,0 1,0 0.5,0 1,0 0.5,0 1,0 0.5,0 1,0 0.5,0 1,0 0.5,0 1,0 0.5,0 1,0 0.5,0 1,0 0.5,0 1,0 0.5,0 1,0"
         id="path75"
         inkscape:connector-curvature="0" />
      <path
         style="fill:#000000;fill-opacity:1"
         d="M 6,9.5 C 7.0649002,8.4486355 9.2453442,9.2520603 10.778805,9 H 47.5 c 1.051365,1.0649 0.24794,3.245344 0.5,4.778805 -0.08217,3.692159 0.165115,7.437781 -0.125,11.096195 -3.536774,0.370246 -7.213312,-0.120777 -10.75,0.25 -0.290656,7.363399 -0.04242,14.814249 -0.125,22.211414 0.08154,2.839724 -0.164221,5.732563 0.125,8.538586 1.529794,-0.534977 1.364992,-3.328081 2.875,-4.375 0.03912,-1.988662 1.821581,-2.929072 2,-4.836414 -0.02346,-1.985962 1.583802,-2.9923 2,-4.721195 0.591276,-1.704658 1.932022,-2.79087 2.125,-4.817391 1.227562,-1.082918 1.0875,-3.200075 1.875,-4.625 1.493638,-1.203603 1.304308,-3.554154 2.875,-4.625 0.141747,-2.092347 1.610173,-3.146776 2.125,-4.932609 -0.115136,-2.037033 1.309716,-3.15519 2,-4.721196 0.24473,-1.830151 1.632941,-2.79664 1.716518,-4.721195 1.467152,-1.717922 1.402455,-2.788908 2.619896,-3.5 4.172912,0.08244 8.399431,-0.1654579 12.538586,0.125 0.290656,7.363399 0.04242,14.814249 0.125,22.211414 V 55.5 c 1.493638,0.947915 1.304308,-3.080863 2.875,-3.625 0.374252,-2.027983 1.226785,-3.533875 2.625,-4.875 0.869272,-1.569378 1.455995,-3.311108 2.5,-4.778805 0.580754,-1.82103 1.442417,-3.471019 3,-4.721195 0.03912,-1.988662 1.821581,-2.929072 2,-4.836414 0.811209,-1.688535 2.11532,-3.074834 3,-4.721195 C 89.370397,26.649667 89.359478,24.319888 86.663586,25 85.174751,24.737328 83.017269,25.567172 82,24.5 82.082708,19.38166 81.834169,14.209566 82.125,9.125 89.488399,8.8343443 96.939248,9.0825795 104.33641,9 c 4.50623,0.082559 9.06613,-0.165619 13.53859,0.125 0.28968,5.084753 0.0431,10.256523 0.125,15.375 -1.0649,1.051365 -3.24534,0.24794 -4.7788,0.5 -2.38609,-0.593772 -3.01999,1.570595 -3.7212,3 -0.86927,1.569378 -1.456,3.311108 -2.5,4.778805 -0.24473,1.83015 -1.91642,2.79664 -2,4.721195 -1.49364,1.203604 -1.30431,3.554153 -2.875,4.625 -0.14175,2.092345 -1.61017,3.146777 -2.125,4.932609 -0.591276,1.704658 -1.932022,2.79087 -2.125,4.817391 C 96.345206,52.971942 96.510008,55.303904 95,56.5 93.506362,57.703603 93.695692,60.054154 92.125,61.125 91.983253,63.217347 90.514827,64.271776 90,66.057609 89.408724,67.762267 88.067978,68.848479 87.875,70.875 86.345206,71.971942 86.510008,74.303904 85,75.5 84.96088,77.488662 83.178419,78.429072 83,80.336414 81.863589,81.710309 81.438927,83.510842 80.5,85 79.630728,86.569378 79.044005,88.311108 78,89.778805 77.988374,91.829226 75.811562,92.254931 73.942391,92 H 52.5 C 51.448635,90.9351 52.25206,88.754656 52,87.221195 51.917042,80.529164 52.166165,73.783244 51.875,67.125 50.345206,67.659977 50.510008,70.453081 49,71.5 48.960879,73.488662 47.178419,74.429072 47,76.336414 45.863589,77.710309 45.438927,79.510842 44.5,81 43.630728,82.569378 43.044005,84.311108 42,85.778805 41.75527,87.608956 40.319812,88.693563 40.236235,90.618118 38.800285,92.793092 37.599481,91.775547 36.221195,92 29.195836,91.917009 22.11657,92.16621 15.125,91.875 14.834344,84.511601 15.08258,77.060751 15,69.663586 V 25.5 C 13.9351,24.448635 11.754656,25.25206 10.221195,25 8.8724256,24.64725 6.0337881,25.898005 6,23.942391 Z M 72.5,88 c 2.188771,-0.714559 3.051113,-3.715065 4.375,-5.625 C 79.645269,76.535164 82.64079,70.798929 85.5,65 c 1.847299,-3.430665 3.29801,-7.1357 5.394289,-10.394289 1.809884,-2.185063 2.605257,-5.062904 4.068877,-7.495208 C 98.110005,40.725569 101.3242,34.371615 104.5,28 c 1.20936,-2.229455 2.82448,-4.033162 2.81249,-6.6875 2.0308,-0.931253 4.80695,0.469772 6.56251,-0.9375 0.11719,-2.327794 0.3818,-4.816408 -0.18749,-7.0625 C 110.21563,12.648804 106.51226,13.161493 102.94239,13 97.505848,13.078075 92.04687,12.840468 86.625,13.125 85.444428,14.608155 86.229827,16.923602 86,18.778805 85.357869,21.706249 88.716436,20.902099 90.5,21 c 2.430554,-0.558754 4.135783,0.796815 3.5,3.336414 0.08461,2.601372 -1.624161,4.916583 -2.894289,7.057875 -1.809884,2.185063 -2.605257,5.062904 -4.068877,7.495208 C 85.760583,40.850749 84.404972,42.774512 83.5,45 82.6195,47.258059 81.176637,49.144675 79.948668,51.153995 78.531035,53.542616 77.695396,56.311558 76,58.5 73.729037,59.383227 71.056166,58.954411 68.625,58.875 67.444428,57.391845 68.229827,55.076398 68,53.221195 V 15.5 C 67.65921,13.037382 63.366477,13.923981 61.802855,14.697145 59.997312,17.506093 58.830239,20.725469 57.125,23.625 c -0.565938,3.243216 -2.593672,6.036776 -4,9 -1.667268,2.913934 -2.226571,6.147416 -4,9 -1.444382,2.98254 -2.909169,5.937851 -4,9 -1.357766,3.076669 -3.03309,6.007283 -4.437499,9.0625 C 38.439788,60.241233 35.954012,60.00625 33.625,59.875 32.444428,58.391845 33.229827,56.076398 33,54.221195 V 22.5 c 0.207751,-2.539464 3.593649,-1.133232 5.336414,-1.5 1.816451,-0.230915 4.094297,0.557687 5.538586,-0.625 0.117184,-2.327793 0.381809,-4.816419 -0.187499,-7.0625 C 40.215623,12.648803 36.512255,13.161493 32.942391,13 25.506005,13.080286 18.046656,12.837448 10.625,13.125 9.4444277,14.608155 10.229827,16.923602 10,18.778805 9.3578691,21.706249 12.716436,20.902099 14.5,21 c 1.838306,0.06864 5.211732,-0.672605 4.5,2.336414 V 86.5 c 0.207751,2.539464 3.593649,1.133232 5.336414,1.5 C 28.013689,87.92663 31.712269,88.153025 35.375,87.875 37.632503,86.32323 38.027536,83.205675 39.5,81 42.674577,74.611104 45.907691,68.24913 49.051332,61.846005 49.791053,59.395068 51.563937,57.366366 54.336414,58 57.02097,57.931199 55.669791,61.362759 56,63.057609 c 0.08072,8.103022 -0.163141,16.22911 0.125,24.317391 1.483155,1.180572 3.798602,0.395173 5.653805,0.625 z"
         id="path77"
         inkscape:connector-curvature="0"
         sodipodi:nodetypes="ccccccccccccccccccccccccccccccccccccccccccccccccccccccccccccccccccccccccccccccccccccccccccccccccccccccccccccccccc" />
      <path
         style="fill:#00ffff;fill-opacity:1"
         d="m 10.125,13.625 q 0.125,-0.375 0.5,-0.5 Q 11,13 11.5,13 q 0.5,0 1,0 0.5,0 1,0 0.5,0 1,0 0.5,0 1,0 0.5,0 1,0 0.5,0 1,0 0.5,0 1,0 0.5,0 1,0 0.5,0 1,0 0.5,0 1,0 0.5,0 1,0 0.5,0 1,0 0.5,0 1,0 0.5,0 1,0 0.5,0 1,0 0.5,0 1,0 0.5,0 1,0 0.5,0 1,0 0.5,0 1,0 0.5,0 1,0 0.5,0 1,0 0.5,0 1,0 0.5,0 1,0 0.5,0 1,0 0.5,0 1,0 0.5,0 1,0 0.5,0 1,0 0.5,0 1,0 0.5,0 1,0 0.5,0 1,0 0.5,0 1,0 0.5,0 0.875,0.125 0.375,0.125 0.5,0.5 Q 44,14 44,14.5 q 0,0.5 0,1 0,0.5 0,1 0,0.5 0,1 0,0.5 0,1 0,0.5 0,1 0,0.5 -0.125,0.875 -0.125,0.375 -0.5,0.5 Q 43,21 42.5,21 q -0.5,0 -1,0 -0.5,0 -1,0 -0.5,0 -1,0 -0.5,0 -1,0 -0.5,0 -1,0 -0.5,0 -1,0 -0.5,0 -1,0 -0.5,0 -1,0 -0.5,0 -0.875,0.125 -0.375,0.125 -0.5,0.5 Q 33,22 33,22.5 q 0,0.5 0,1 0,0.5 0,1 0,0.5 0,1 0,0.5 0,1 0,0.5 0,1 0,0.5 0,1 0,0.5 0,1 0,0.5 0,1 0,0.5 0,1 0,0.5 0,1 0,0.5 0,1 0,0.5 0,1 0,0.5 0,1 0,0.5 0,1 0,0.5 0,1 0,0.5 0,1 0,0.5 0,1 0,0.5 0,1 0,0.5 0,1 0,0.5 0,1 0,0.5 0,1 0,0.5 0,1 0,0.5 0,1 0,0.5 0,1 0,0.5 0,1 0,0.5 0,1 0,0.5 0,1 0,0.5 0,1 0,0.5 0,1 0,0.5 0,1 0,0.5 0,1 0,0.5 0,1 0,0.5 0,1 0,0.5 0,1 0,0.5 0,1 0,0.5 0,1 0,0.5 0.125,0.875 0.125,0.375 0.5,0.5 Q 34,60 34.5,60 q 0.5,0 1,0 0.5,0 1,0 0.5,0 1,0 0.5,0 1,0 0.5,0 1,0 0.5,0 0.875,-0.125 0.375,-0.125 0.5,-0.5 Q 41,59 41.125,58.625 41.25,58.25 41.5,58 41.75,57.75 41.875,57.375 42,57 42.125,56.625 42.25,56.25 42.5,56 42.75,55.75 42.875,55.375 43,55 43.125,54.625 43.25,54.25 43.5,54 43.75,53.75 43.875,53.375 44,53 44.125,52.625 44.25,52.25 44.5,52 44.75,51.75 44.875,51.375 45,51 45.125,50.625 45.25,50.25 45.5,50 45.75,49.75 45.875,49.375 46,49 46,48.5 46,48 46.125,47.625 46.25,47.25 46.5,47 46.75,46.75 46.875,46.375 47,46 47.125,45.625 47.25,45.25 47.5,45 47.75,44.75 47.875,44.375 48,44 48.125,43.625 48.25,43.25 48.5,43 48.75,42.75 48.875,42.375 49,42 49.125,41.625 49.25,41.25 49.5,41 49.75,40.75 49.875,40.375 50,40 50.125,39.625 50.25,39.25 50.5,39 50.75,38.75 50.875,38.375 51,38 51,37.5 51,37 51.125,36.625 51.25,36.25 51.5,36 51.75,35.75 51.875,35.375 52,35 52.125,34.625 52.25,34.25 52.5,34 52.75,33.75 52.875,33.375 53,33 53.125,32.625 53.25,32.25 53.5,32 53.75,31.75 53.875,31.375 54,31 54.125,30.625 54.25,30.25 54.5,30 54.75,29.75 54.875,29.375 55,29 55.125,28.625 55.25,28.25 55.5,28 55.75,27.75 55.875,27.375 56,27 56.125,26.625 56.25,26.25 56.5,26 56.75,25.75 56.875,25.375 57,25 57,24.5 57,24 57.125,23.625 57.25,23.25 57.5,23 57.75,22.75 57.875,22.375 58,22 58.125,21.625 58.25,21.25 58.5,21 58.75,20.75 58.875,20.375 59,20 59.125,19.625 59.25,19.25 59.5,19 59.75,18.75 59.875,18.375 60,18 60.125,17.625 60.25,17.25 60.5,17 60.75,16.75 60.875,16.375 61,16 61.125,15.625 61.25,15.25 61.5,15 61.75,14.75 62,14.5 62.25,14.25 62.625,14.125 63,14 63.5,14 q 0.5,0 1,0 0.5,0 1,0 0.5,0 1,0 0.5,0 0.875,0.125 0.375,0.125 0.5,0.5 Q 68,15 68,15.5 q 0,0.5 0,1 0,0.5 0,1 0,0.5 0,1 0,0.5 0,1 0,0.5 0,1 0,0.5 0,1 0,0.5 0,1 0,0.5 0,1 0,0.5 0,1 0,0.5 0,1 0,0.5 0,1 0,0.5 0,1 0,0.5 0,1 0,0.5 0,1 0,0.5 0,1 0,0.5 0,1 0,0.5 0,1 0,0.5 0,1 0,0.5 0,1 0,0.5 0,1 0,0.5 0,1 0,0.5 0,1 0,0.5 0,1 0,0.5 0,1 0,0.5 0,1 0,0.5 0,1 0,0.5 0,1 0,0.5 0,1 0,0.5 0,1 0,0.5 0,1 0,0.5 0,1 0,0.5 0,1 0,0.5 0,1 0,0.5 0,1 0,0.5 0,1 0,0.5 0,1 0,0.5 0,1 0,0.5 0,1 0,0.5 0,1 0,0.5 0,1 0,0.5 0,1 0,0.5 0,1 0,0.5 0.125,0.875 0.125,0.375 0.5,0.5 Q 69,59 69.5,59 q 0.5,0 1,0 0.5,0 1,0 0.5,0 1,0 0.5,0 1,0 0.5,0 1,0 0.5,0 0.875,-0.125 Q 75.75,58.75 76,58.5 76.25,58.25 76.5,58 76.75,57.75 76.875,57.375 77,57 77.125,56.625 77.25,56.25 77.5,56 77.75,55.75 77.875,55.375 78,55 78.125,54.625 78.25,54.25 78.5,54 78.75,53.75 78.875,53.375 79,53 79.125,52.625 79.25,52.25 79.5,52 79.75,51.75 79.875,51.375 80,51 80.125,50.625 80.25,50.25 80.5,50 80.75,49.75 81,49.5 81.25,49.25 81.5,49 81.75,48.75 81.875,48.375 82,48 82.125,47.625 82.25,47.25 82.5,47 82.75,46.75 82.875,46.375 83,46 83.125,45.625 83.25,45.25 83.5,45 83.75,44.75 83.875,44.375 84,44 84.125,43.625 84.25,43.25 84.5,43 84.75,42.75 84.875,42.375 85,42 85.125,41.625 85.25,41.25 85.5,41 85.75,40.75 86,40.5 86.25,40.25 86.5,40 86.75,39.75 86.875,39.375 87,39 87.125,38.625 87.25,38.25 87.5,38 87.75,37.75 87.875,37.375 88,37 88.125,36.625 88.25,36.25 88.5,36 88.75,35.75 88.875,35.375 89,35 89.125,34.625 89.25,34.25 89.5,34 89.75,33.75 89.875,33.375 90,33 90.125,32.625 90.25,32.25 90.5,32 90.75,31.75 91,31.5 91.25,31.25 91.5,31 91.75,30.75 91.875,30.375 92,30 92.125,29.625 92.25,29.25 92.5,29 92.75,28.75 92.875,28.375 93,28 93.125,27.625 93.25,27.25 93.5,27 93.75,26.75 93.875,26.375 94,26 94,25.5 q 0,-0.5 0,-1 0,-0.5 0,-1 0,-0.5 0,-1 0,-0.5 -0.125,-0.875 -0.125,-0.375 -0.5,-0.5 Q 93,21 92.5,21 q -0.5,0 -1,0 -0.5,0 -1,0 -0.5,0 -1,0 -0.5,0 -1,0 -0.5,0 -1,0 -0.5,0 -0.875,-0.125 -0.375,-0.125 -0.5,-0.5 Q 86,20 86,19.5 q 0,-0.5 0,-1 0,-0.5 0,-1 0,-0.5 0,-1 0,-0.5 0,-1 0,-0.5 0,-1 0,-0.5 0.125,-0.875 0.125,-0.375 0.5,-0.5 Q 87,13 87.5,13 q 0.5,0 1,0 0.5,0 1,0 0.5,0 1,0 0.5,0 1,0 0.5,0 1,0 0.5,0 1,0 0.5,0 1,0 0.5,0 1,0 0.5,0 1,0 0.5,0 1,0 0.5,0 1,0 0.5,0 1,0 0.5,0 1,0 0.5,0 1,0 0.5,0 1,0 0.5,0 1,0 0.5,0 1,0 0.5,0 1,0 0.5,0 1,0 0.5,0 1,0 0.5,0 1,0 0.5,0 1,0 0.5,0 1,0 0.5,0 1,0 0.5,0 1,0 0.5,0 0.875,0.125 0.375,0.125 0.5,0.5 Q 114,14 114,14.5 q 0,0.5 0,1 0,0.5 0,1 0,0.5 0,1 0,0.5 0,1 0,0.5 0,1 0,0.5 -0.125,0.875 -0.125,0.375 -0.5,0.5 Q 113,21 112.5,21 q -0.5,0 -1,0 -0.5,0 -1,0 -0.5,0 -1,0 -0.5,0 -1,0 -0.5,0 -0.875,0.125 -0.375,0.125 -0.5,0.5 Q 107,22 107,22.5 q 0,0.5 0,1 0,0.5 -0.125,0.875 -0.125,0.375 -0.375,0.625 -0.25,0.25 -0.5,0.5 -0.25,0.25 -0.5,0.5 -0.25,0.25 -0.375,0.625 Q 105,27 104.875,27.375 104.75,27.75 104.5,28 104.25,28.25 104.125,28.625 104,29 103.875,29.375 103.75,29.75 103.5,30 103.25,30.25 103.125,30.625 103,31 102.875,31.375 102.75,31.75 102.5,32 102.25,32.25 102.125,32.625 102,33 101.875,33.375 101.75,33.75 101.5,34 101.25,34.25 101.125,34.625 101,35 100.875,35.375 100.75,35.75 100.5,36 100.25,36.25 100.125,36.625 100,37 99.875,37.375 99.75,37.75 99.5,38 99.25,38.25 99.125,38.625 99,39 98.875,39.375 98.75,39.75 98.5,40 98.25,40.25 98.125,40.625 98,41 97.875,41.375 97.75,41.75 97.5,42 97.25,42.25 97.125,42.625 97,43 96.875,43.375 96.75,43.75 96.5,44 96.25,44.25 96.125,44.625 96,45 95.875,45.375 95.75,45.75 95.5,46 95.25,46.25 95.125,46.625 95,47 94.875,47.375 94.75,47.75 94.5,48 94.25,48.25 94.125,48.625 94,49 93.875,49.375 93.75,49.75 93.5,50 93.25,50.25 93.125,50.625 93,51 92.875,51.375 92.75,51.75 92.5,52 92.25,52.25 92.125,52.625 92,53 91.875,53.375 91.75,53.75 91.5,54 91.25,54.25 91,54.5 90.75,54.75 90.5,55 90.25,55.25 90.125,55.625 90,56 89.875,56.375 89.75,56.75 89.5,57 89.25,57.25 89.125,57.625 89,58 88.875,58.375 88.75,58.75 88.5,59 88.25,59.25 88.125,59.625 88,60 87.875,60.375 87.75,60.75 87.5,61 87.25,61.25 87.125,61.625 87,62 86.875,62.375 86.75,62.75 86.5,63 86.25,63.25 86.125,63.625 86,64 85.875,64.375 85.75,64.75 85.5,65 85.25,65.25 85.125,65.625 85,66 84.875,66.375 84.75,66.75 84.5,67 84.25,67.25 84.125,67.625 84,68 83.875,68.375 83.75,68.75 83.5,69 83.25,69.25 83.125,69.625 83,70 82.875,70.375 82.75,70.75 82.5,71 82.25,71.25 82.125,71.625 82,72 81.875,72.375 81.75,72.75 81.5,73 81.25,73.25 81.125,73.625 81,74 80.875,74.375 80.75,74.75 80.5,75 80.25,75.25 80.125,75.625 80,76 79.875,76.375 79.75,76.75 79.5,77 79.25,77.25 79.125,77.625 79,78 78.875,78.375 78.75,78.75 78.5,79 78.25,79.25 78.125,79.625 78,80 77.875,80.375 77.75,80.75 77.5,81 77.25,81.25 77.125,81.625 77,82 76.875,82.375 76.75,82.75 76.5,83 76.25,83.25 76.125,83.625 76,84 75.875,84.375 75.75,84.75 75.5,85 75.25,85.25 75,85.5 74.75,85.75 74.5,86 74.25,86.25 74.125,86.625 74,87 73.875,87.375 73.75,87.75 73.375,87.875 73,88 72.5,88 q -0.5,0 -1,0 -0.5,0 -1,0 -0.5,0 -1,0 -0.5,0 -1,0 -0.5,0 -1,0 -0.5,0 -1,0 -0.5,0 -1,0 -0.5,0 -1,0 -0.5,0 -1,0 -0.5,0 -1,0 -0.5,0 -1,0 -0.5,0 -1,0 -0.5,0 -1,0 -0.5,0 -1,0 -0.5,0 -1,0 -0.5,0 -0.875,-0.125 -0.375,-0.125 -0.5,-0.5 Q 56,87 56,86.5 q 0,-0.5 0,-1 0,-0.5 0,-1 0,-0.5 0,-1 0,-0.5 0,-1 0,-0.5 0,-1 0,-0.5 0,-1 0,-0.5 0,-1 0,-0.5 0,-1 0,-0.5 0,-1 0,-0.5 0,-1 0,-0.5 0,-1 0,-0.5 0,-1 0,-0.5 0,-1 0,-0.5 0,-1 0,-0.5 0,-1 0,-0.5 0,-1 0,-0.5 0,-1 0,-0.5 0,-1 0,-0.5 0,-1 0,-0.5 0,-1 0,-0.5 0,-1 0,-0.5 0,-1 0,-0.5 0,-1 0,-0.5 0,-1 0,-0.5 0,-1 0,-0.5 0,-1 0,-0.5 0,-1 0,-0.5 -0.125,-0.875 -0.125,-0.375 -0.5,-0.5 Q 55,58 54.5,58 54,58 53.5,58 53,58 52.5,58 52,58 51.625,58.125 51.25,58.25 51,58.5 50.75,58.75 50.5,59 50.25,59.25 50.125,59.625 50,60 49.875,60.375 49.75,60.75 49.5,61 49.25,61.25 49.125,61.625 49,62 48.875,62.375 48.75,62.75 48.5,63 48.25,63.25 48.125,63.625 48,64 47.875,64.375 47.75,64.75 47.5,65 47.25,65.25 47.125,65.625 47,66 46.875,66.375 46.75,66.75 46.5,67 46.25,67.25 46.125,67.625 46,68 45.875,68.375 45.75,68.75 45.5,69 45.25,69.25 45.125,69.625 45,70 44.875,70.375 44.75,70.75 44.5,71 44.25,71.25 44.125,71.625 44,72 43.875,72.375 43.75,72.75 43.5,73 43.25,73.25 43.125,73.625 43,74 42.875,74.375 42.75,74.75 42.5,75 42.25,75.25 42.125,75.625 42,76 41.875,76.375 41.75,76.75 41.5,77 41.25,77.25 41.125,77.625 41,78 40.875,78.375 40.75,78.75 40.5,79 40.25,79.25 40.125,79.625 40,80 39.875,80.375 39.75,80.75 39.5,81 39.25,81.25 39.125,81.625 39,82 38.875,82.375 38.75,82.75 38.5,83 38.25,83.25 38.125,83.625 38,84 37.875,84.375 37.75,84.75 37.5,85 37.25,85.25 37.125,85.625 37,86 36.875,86.375 36.75,86.75 36.5,87 36.25,87.25 36,87.5 35.75,87.75 35.375,87.875 35,88 34.5,88 q -0.5,0 -1,0 -0.5,0 -1,0 -0.5,0 -1,0 -0.5,0 -1,0 -0.5,0 -1,0 -0.5,0 -1,0 -0.5,0 -1,0 -0.5,0 -1,0 -0.5,0 -1,0 -0.5,0 -1,0 -0.5,0 -1,0 -0.5,0 -1,0 -0.5,0 -1,0 -0.5,0 -1,0 -0.5,0 -0.875,-0.125 -0.375,-0.125 -0.5,-0.5 Q 19,87 19,86.5 q 0,-0.5 0,-1 0,-0.5 0,-1 0,-0.5 0,-1 0,-0.5 0,-1 0,-0.5 0,-1 0,-0.5 0,-1 0,-0.5 0,-1 0,-0.5 0,-1 0,-0.5 0,-1 0,-0.5 0,-1 0,-0.5 0,-1 0,-0.5 0,-1 0,-0.5 0,-1 0,-0.5 0,-1 0,-0.5 0,-1 0,-0.5 0,-1 0,-0.5 0,-1 0,-0.5 0,-1 0,-0.5 0,-1 0,-0.5 0,-1 0,-0.5 0,-1 0,-0.5 0,-1 0,-0.5 0,-1 0,-0.5 0,-1 0,-0.5 0,-1 0,-0.5 0,-1 0,-0.5 0,-1 0,-0.5 0,-1 0,-0.5 0,-1 0,-0.5 0,-1 0,-0.5 0,-1 0,-0.5 0,-1 0,-0.5 0,-1 0,-0.5 0,-1 0,-0.5 0,-1 0,-0.5 0,-1 0,-0.5 0,-1 0,-0.5 0,-1 0,-0.5 0,-1 0,-0.5 0,-1 0,-0.5 0,-1 0,-0.5 0,-1 0,-0.5 0,-1 0,-0.5 0,-1 0,-0.5 0,-1 0,-0.5 0,-1 0,-0.5 0,-1 0,-0.5 0,-1 0,-0.5 0,-1 0,-0.5 0,-1 0,-0.5 0,-1 0,-0.5 0,-1 0,-0.5 0,-1 0,-0.5 0,-1 0,-0.5 0,-1 0,-0.5 0,-1 0,-0.5 0,-1 0,-0.5 0,-1 0,-0.5 0,-1 0,-0.5 0,-1 0,-0.5 0,-1 0,-0.5 0,-1 0,-0.5 0,-1 0,-0.5 0,-1 0,-0.5 -0.125,-0.875 -0.125,-0.375 -0.5,-0.5 Q 18,21 17.5,21 q -0.5,0 -1,0 -0.5,0 -1,0 -0.5,0 -1,0 -0.5,0 -1,0 -0.5,0 -1,0 -0.5,0 -1,0 -0.5,0 -0.875,-0.125 -0.375,-0.125 -0.5,-0.5 Q 10,20 10,19.5 q 0,-0.5 0,-1 0,-0.5 0,-1 0,-0.5 0,-1 0,-0.5 0,-1 0,-0.5 0,-1 0,-0.5 0.125,-0.875"
         id="path79"
         inkscape:connector-curvature="0" />
    </g>
  </g>
</svg>
