<?xml version="1.0" encoding="UTF-8" standalone="no"?>
<!-- Generator: Adobe Illustrator 18.0.0, SVG Export Plug-In . SVG Version: 6.00 Build 0)  -->

<svg
   xmlns:dc="http://purl.org/dc/elements/1.1/"
   xmlns:cc="http://creativecommons.org/ns#"
   xmlns:rdf="http://www.w3.org/1999/02/22-rdf-syntax-ns#"
   xmlns:svg="http://www.w3.org/2000/svg"
   xmlns="http://www.w3.org/2000/svg"
   xmlns:sodipodi="http://sodipodi.sourceforge.net/DTD/sodipodi-0.dtd"
   xmlns:inkscape="http://www.inkscape.org/namespaces/inkscape"
   version="1.1"
   id="Layer_1"
   x="0px"
   y="0px"
   viewBox="0 0 120 93.233944"
   enable-background="new 0 0 64 64"
   xml:space="preserve"
   sodipodi:docname="application-epub+zip.svg"
   width="120"
   height="93.233948"
   inkscape:version="0.92.1 r15371"><metadata
     id="metadata76"><rdf:RDF><cc:Work
         rdf:about=""><dc:format>image/svg+xml</dc:format><dc:type
           rdf:resource="http://purl.org/dc/dcmitype/StillImage" /></cc:Work></rdf:RDF></metadata><defs
     id="defs74" /><sodipodi:namedview
     pagecolor="#ffffff"
     bordercolor="#666666"
     borderopacity="1"
     objecttolerance="10"
     gridtolerance="10"
     guidetolerance="10"
     inkscape:pageopacity="0"
     inkscape:pageshadow="2"
     inkscape:window-width="1280"
     inkscape:window-height="734"
     id="namedview72"
     showgrid="false"
     inkscape:zoom="1.84375"
     inkscape:cx="-27.812526"
     inkscape:cy="77.394101"
     inkscape:window-x="0"
     inkscape:window-y="0"
     inkscape:window-maximized="1"
     inkscape:current-layer="Layer_1" /><g
     id="XMLID_5_"
     transform="matrix(1.7113875,0,0,1.701967,5.4237288,-7.032413)"><g
       id="g18"><g
         id="g4"><path
           d="m 45,8 v 19 l -3,-2 -3,2 V 9 9 c 1.8,-0.5 3.8,-0.9 6,-1 z"
           id="path2"
           inkscape:connector-curvature="0"
           style="fill:#f25353" /></g><g
         id="g8"><path
           d="m 60,14 v 35 c 0,0 -6.1,-4 -14,-4 -7.2,0 -14,4 -14,4 V 12 c 0,0 2.8,-1.8 7,-3 v 0 18 l 3,-2 3,2 V 8 c 0.3,0 0.7,0 1,0 8,0 14,4 14,4 z"
           id="path6"
           inkscape:connector-curvature="0"
           style="fill:#f7f2eb" /></g><g
         id="g12"><path
           d="M 63,14 V 52 H 36 c 0,2.2 -1.8,4 -4,4 -2.2,0 -4,-1.8 -4,-4 H 1 V 14 h 3 v 35 c 0,0 6.1,-4 14,-4 8.1,0 14,4 14,4 0,0 6.8,-4 14,-4 7.9,0 14,4 14,4 V 14 Z"
           id="path10"
           inkscape:connector-curvature="0"
           style="fill:#f9be48" /></g><g
         id="g16"><path
           d="M 32,12 V 49 C 32,49 26.1,45 18,45 10.1,45 4,49 4,49 V 14 12 c 0,0 6,-4 14,-4 8,0 14,4 14,4 z"
           id="path14"
           inkscape:connector-curvature="0"
           style="fill:#f7f2eb" /></g></g><g
       id="g68"><g
         id="g22"><path
           d="M 4,50 C 3.8,50 3.7,50 3.5,49.9 3.2,49.7 3,49.4 3,49 V 12 C 3,11.7 3.2,11.4 3.4,11.2 3.7,11 9.8,7 18,7 c 8.2,0 14.3,4 14.6,4.2 0.5,0.3 0.6,0.9 0.3,1.4 -0.3,0.5 -0.9,0.6 -1.4,0.3 C 31.4,12.8 25.6,9 18,9 11.6,9 6.5,11.7 5,12.6 V 47.3 C 7.4,46.1 12.2,44 18,44 c 8.3,0 14.3,4 14.6,4.2 0.5,0.3 0.6,0.9 0.3,1.4 -0.3,0.5 -0.9,0.6 -1.4,0.3 -0.1,0 -5.8,-3.8 -13.4,-3.8 -7.6,0 -13.4,3.8 -13.4,3.8 C 4.4,49.9 4.2,50 4,50 Z"
           id="path20"
           inkscape:connector-curvature="0"
           style="fill:#2c2c3d" /></g><g
         id="g26"><path
           d="M 9,20.7 C 8.6,20.7 8.2,20.4 8.1,20 7.9,19.5 8.2,18.9 8.7,18.7 12,17.6 15.1,17 18,17 c 2.9,0 6,0.6 9.3,1.8 0.5,0.2 0.8,0.8 0.6,1.3 -0.2,0.5 -0.8,0.8 -1.3,0.6 -3.1,-1.1 -6,-1.7 -8.7,-1.7 -2.6,0 -5.6,0.6 -8.7,1.7 0,0 -0.1,0 -0.2,0 z"
           id="path24"
           inkscape:connector-curvature="0"
           style="fill:#2c2c3d" /></g><g
         id="g30"><path
           d="M 9,28 C 8.6,28 8.2,27.7 8.1,27.3 7.9,26.8 8.2,26.2 8.7,26 11,25.2 14.4,24.2 18,24.2 c 2.9,0 6,0.6 9.3,1.8 0.5,0.2 0.8,0.8 0.6,1.3 -0.2,0.5 -0.8,0.8 -1.3,0.6 -3.1,-1.1 -6,-1.7 -8.7,-1.7 -3.3,0 -6.5,0.9 -8.7,1.7 C 9.2,28 9.1,28 9,28 Z"
           id="path28"
           inkscape:connector-curvature="0"
           style="fill:#2c2c3d" /></g><g
         id="g34"><path
           d="M 9,35.7 C 8.6,35.7 8.2,35.4 8.1,35 7.9,34.5 8.2,33.9 8.7,33.7 12,32.6 15.1,32 18,32 c 2.9,0 6,0.6 9.3,1.8 0.5,0.2 0.8,0.8 0.6,1.3 -0.2,0.5 -0.8,0.8 -1.3,0.6 -3.1,-1.1 -6,-1.7 -8.7,-1.7 -2.6,0 -5.6,0.6 -8.7,1.7 0,0 -0.1,0 -0.2,0 z"
           id="path32"
           inkscape:connector-curvature="0"
           style="fill:#2c2c3d" /></g><g
         id="g38"><path
           d="m 55,28 c -0.1,0 -0.2,0 -0.3,-0.1 -2,-0.7 -3.9,-1.2 -5.8,-1.5 -0.5,-0.1 -0.9,-0.6 -0.9,-1.1 0.1,-0.5 0.6,-0.9 1.1,-0.9 2,0.3 4.1,0.8 6.2,1.6 0.5,0.2 0.8,0.8 0.6,1.3 C 55.8,27.7 55.4,28 55,28 Z"
           id="path36"
           inkscape:connector-curvature="0"
           style="fill:#2c2c3d" /></g><g
         id="g42"><path
           d="m 55,20.5 c -0.1,0 -0.2,0 -0.3,-0.1 -2,-0.7 -4,-1.2 -5.8,-1.5 -0.5,-0.1 -0.9,-0.6 -0.9,-1.1 0.1,-0.5 0.6,-0.9 1.1,-0.9 2,0.3 4,0.8 6.2,1.6 0.5,0.2 0.8,0.8 0.6,1.3 -0.1,0.5 -0.5,0.7 -0.9,0.7 z"
           id="path40"
           inkscape:connector-curvature="0"
           style="fill:#2c2c3d" /></g><g
         id="g46"><path
           d="m 45,28 c -0.2,0 -0.4,-0.1 -0.6,-0.2 L 42,26.2 39.6,27.8 c -0.3,0.2 -0.7,0.2 -1,0 C 38.2,27.7 38,27.4 38,27 V 9 c 0,-0.6 0.4,-1 1,-1 0.6,0 1,0.4 1,1 v 16.1 l 1.4,-1 c 0.3,-0.2 0.8,-0.2 1.1,0 l 1.4,1 V 8 c 0,-0.6 0.4,-1 1,-1 0.6,0 1,0.4 1,1 v 19 c 0,0.4 -0.2,0.7 -0.5,0.9 C 45.3,28 45.2,28 45,28 Z"
           id="path44"
           inkscape:connector-curvature="0"
           style="fill:#2c2c3d" /></g><g
         id="g50"><path
           d="m 37,35.7 c -0.4,0 -0.8,-0.3 -0.9,-0.7 -0.2,-0.5 0.1,-1.1 0.6,-1.3 C 40,32.6 43.1,32 46,32 c 3.6,0 7.1,1 9.3,1.8 0.5,0.2 0.8,0.8 0.6,1.3 -0.2,0.5 -0.8,0.8 -1.3,0.6 C 52.5,34.9 49.3,34 46,34 c -2.6,0 -5.5,0.6 -8.7,1.7 -0.1,0 -0.2,0 -0.3,0 z"
           id="path48"
           inkscape:connector-curvature="0"
           style="fill:#2c2c3d" /></g><g
         id="g54"><path
           d="M 32,50 C 31.8,50 31.7,50 31.5,49.9 31.2,49.7 31,49.4 31,49 V 12 c 0,-0.3 0.2,-0.6 0.4,-0.8 0.1,-0.1 2.9,-1.9 7.3,-3.1 2.1,-0.6 4.2,-0.9 6.2,-1 0.4,0 0.7,0 1,0 8.2,0 14.3,4 14.6,4.2 0.3,0.2 0.4,0.5 0.4,0.8 v 37 c 0,0.4 -0.2,0.7 -0.5,0.9 -0.3,0.2 -0.7,0.2 -1,0 -0.1,0 -5.9,-3.8 -13.5,-3.8 -6.8,0 -13.4,3.8 -13.5,3.9 C 32.3,50 32.2,50 32,50 Z m 1,-37.4 v 34.8 c 2.5,-1.2 7.6,-3.3 13,-3.3 5.8,0 10.6,2.1 13,3.3 V 12.6 C 57.5,11.7 52.4,9 46,9 45.7,9 45.4,9 45,9 43.1,9.1 41.2,9.4 39.2,9.9 36.2,10.8 33.9,12 33,12.6 Z"
           id="path52"
           inkscape:connector-curvature="0"
           style="fill:#2c2c3d" /></g><g
         id="g58"><path
           d="M 28,53 H 1 C 0.4,53 0,52.6 0,52 V 14 c 0,-0.6 0.4,-1 1,-1 h 3 c 0.6,0 1,0.4 1,1 0,0.6 -0.4,1 -1,1 H 2 v 36 h 26 c 0.6,0 1,0.4 1,1 0,0.6 -0.4,1 -1,1 z"
           id="path56"
           inkscape:connector-curvature="0"
           style="fill:#2c2c3d" /></g><g
         id="g62"><path
           d="M 63,53 H 36 c -0.6,0 -1,-0.4 -1,-1 0,-0.6 0.4,-1 1,-1 H 62 V 15 h -2 c -0.6,0 -1,-0.4 -1,-1 0,-0.6 0.4,-1 1,-1 h 3 c 0.6,0 1,0.4 1,1 v 38 c 0,0.6 -0.4,1 -1,1 z"
           id="path60"
           inkscape:connector-curvature="0"
           style="fill:#2c2c3d" /></g><g
         id="g66"><path
           d="m 32,57 c -2.8,0 -5,-2.2 -5,-5 0,-0.6 0.4,-1 1,-1 0.6,0 1,0.4 1,1 0,1.7 1.3,3 3,3 1.7,0 3,-1.3 3,-3 0,-0.6 0.4,-1 1,-1 0.6,0 1,0.4 1,1 0,2.8 -2.2,5 -5,5 z"
           id="path64"
           inkscape:connector-curvature="0"
           style="fill:#2c2c3d" /></g></g></g></svg>