<?xml version="1.0" encoding="UTF-8" standalone="no"?>
<!-- Created with Inkscape (http://www.inkscape.org/) -->

<svg
   version="1.1"
   id="svg2"
   width="128"
   height="128"
   viewBox="0 0 128 128"
   xmlns="http://www.w3.org/2000/svg"
   xmlns:svg="http://www.w3.org/2000/svg">
  <defs
     id="defs6" />
  <g
     id="g8">
    <path
       style="fill:#ffffff;stroke:none;stroke-width:1px;stroke-linecap:butt;stroke-linejoin:miter;stroke-opacity:1"
       d="m 21.648697,3.3383167 -3.179929,70.2607813 -0.524633,14.63252 3.176495,7.479826 0.07922,26.709396 6.283944,2.78002 80.155826,-0.89841 0.85896,-31.803115 4.5126,-14.729689 -3.3687,-26.946079 L 108.06471,31.109046 94.759356,14.77872 83.117123,2.443759 Z"
       id="path1343" />
    <path
       style="fill:#800080;stroke-width:0.250154;stroke:none;stroke-opacity:1;fill-opacity:1"
       d="m 20.899502,127.72553 c -1.133272,-0.59117 -1.892049,-1.37539 -2.403957,-2.48454 -0.430439,-0.93263 -0.462185,-1.90559 -0.467306,-14.32125 l -0.0055,-13.320644 -2.313916,-1.98e-4 c -2.026109,-1.73e-4 -2.501935,-0.08915 -3.825588,-0.715347 -1.70372,-0.806006 -2.6739334,-1.819669 -3.5356714,-3.694017 l -0.589703,-1.282649 0.06684,-20.480649 0.06684,-20.480646 0.623024,-1.219939 c 0.780347,-1.527996 2.4304544,-3.000451 3.9381674,-3.514178 0.708539,-0.241424 2.011016,-0.394017 3.363188,-0.394017 h 2.206814 V 24.857619 3.8977859 l 0.562842,-1.1016543 c 0.309565,-0.6059097 0.995409,-1.4458855 1.524098,-1.86661305 l 0.961253,-0.7649589 31.785803,-0.06538 c 28.277779,-0.058164 31.850719,-0.022847 32.373979,0.3200101 0.6127,0.4014575 24.994361,28.10037125 25.527321,29.00044925 0.22065,0.372634 0.30626,2.687533 0.31269,8.455464 l 0.009,7.942353 h 2.20681 c 1.35217,0 2.65465,0.152593 3.36319,0.394017 1.50771,0.513727 3.15782,1.986182 3.93816,3.514178 l 0.62303,1.219939 0.0668,20.480646 0.0668,20.480649 -0.64383,1.407724 c -0.84665,1.851205 -1.67135,2.693135 -3.4923,3.565249 -1.31883,0.631633 -1.78164,0.718867 -3.81483,0.71904 l -2.31391,1.98e-4 v 13.330174 13.33017 l -0.56285,1.10166 c -0.30956,0.60591 -0.99541,1.44588 -1.52411,1.86661 l -0.96127,0.76496 -43.190707,0.0622 c -38.780341,0.0558 -43.267337,0.0222 -43.941163,-0.32931 z M 105.82639,109.60644 V 97.599096 H 64.551172 23.275952 v 12.007344 12.00733 h 41.27522 41.275218 z M 28.174125,83.69957 c 1.723396,-0.867511 2.671563,-1.976458 3.356759,-3.925965 0.467191,-1.32924 0.500417,-2.064315 0.500417,-11.070301 v -9.646521 l -2.313913,0.07192 -2.313913,0.07193 -0.125076,9.630884 c -0.135538,10.436492 -0.133932,10.424906 -1.546345,11.155293 -0.739524,0.382423 -1.859155,0.394414 -4.68776,0.05021 -0.529414,-0.06442 -0.67901,0.114117 -1.188225,1.418147 -0.320408,0.820517 -0.582561,1.577467 -0.582561,1.682107 0,0.269367 1.313453,0.915108 2.43086,1.195096 0.520412,0.130399 1.86073,0.206609 2.978483,0.169354 1.665642,-0.05552 2.295498,-0.200235 3.491274,-0.802156 z m 19.41688,0.614518 c 2.916955,-0.609657 5.252716,-2.320908 6.212176,-4.551233 0.442099,-1.027691 0.524132,-1.628608 0.453227,-3.320058 -0.07626,-1.819218 -0.176927,-2.194452 -0.844956,-3.149735 -0.417108,-0.596465 -1.287485,-1.440476 -1.934171,-1.875581 -1.137982,-0.765658 -1.794724,-1.014966 -6.520776,-2.475364 -2.688677,-0.830829 -3.919701,-1.819758 -3.919701,-3.148848 0,-1.125005 0.586109,-1.91421 1.846754,-2.48669 1.388057,-0.630339 5.112426,-0.625723 7.533979,0.0093 0.963088,0.252575 1.771439,0.441473 1.796334,0.419774 0.181788,-0.158427 1.279475,-3.539824 1.19401,-3.678108 -0.0596,-0.09644 -1.038236,-0.437805 -2.174739,-0.758585 -2.994203,-0.845119 -7.144905,-0.842185 -9.497876,0.0067 -3.678788,1.327228 -5.569863,3.750716 -5.554316,7.118079 0.01743,3.778469 1.990885,5.544939 8.13264,7.279714 3.036824,0.857768 4.236302,1.519758 4.774068,2.634801 1.094289,2.268978 -0.836754,4.002994 -4.45266,3.998355 -1.930313,-0.0025 -4.342747,-0.404028 -6.065896,-1.009666 -0.762655,-0.268052 -1.458765,-0.40339 -1.546906,-0.300751 -0.433157,0.504398 -1.289287,3.362903 -1.072214,3.579974 0.335586,0.335586 2.93176,1.226151 4.711593,1.616217 1.878951,0.411788 5.188288,0.455557 6.92943,0.09165 z m 25.442084,-0.108121 c 2.25307,-0.531088 4.28071,-1.688844 5.86297,-3.347681 2.40727,-2.523768 3.41597,-5.299531 3.41597,-9.400164 0,-4.184198 -1.03103,-6.949644 -3.51833,-9.436946 -1.82699,-1.826987 -3.92682,-2.846385 -6.69395,-3.2497 -6.703739,-0.977079 -12.546341,2.725151 -14.156567,8.97046 -0.510104,1.978459 -0.516845,6.024987 -0.01325,7.958392 1.715757,6.587239 8.067146,10.164144 15.103167,8.505639 z m -4.24922,-3.886384 c -4.286907,-0.664275 -6.981348,-5.212208 -6.229934,-10.515475 0.609629,-4.302594 2.884833,-6.681617 6.619234,-6.921274 2.24798,-0.144266 3.88696,0.347533 5.3599,1.608318 3.53201,3.023261 3.87976,10.237827 0.66501,13.796173 -1.47167,1.628971 -3.94979,2.414128 -6.41421,2.032258 z m 22.8433,-5.21655 0.0656,-9.237963 6.12874,9.232573 6.128751,9.23257 2.68914,0.0054 2.68914,0.0054 V 71.70828 59.075562 h -2.25137 -2.25138 v 9.270419 c 0,5.09873 -0.0944,9.212051 -0.20987,9.140712 -0.11542,-0.07134 -2.9015,-4.242453 -6.191281,-9.269146 l -5.98141,-9.13944 -2.68915,-0.0013 -2.68914,-0.0013 v 12.632718 12.632718 h 2.24833 2.24833 z M 105.82639,39.563635 V 33.309814 H 94.323309 82.820219 l -0.81694,-0.729782 -0.81694,-0.729781 -0.071,-13.278778 -0.071,-13.2787799 H 52.160182 23.275952 V 25.555073 45.817456 h 41.27522 41.275218 z"
       id="path185" />
  </g>
</svg>
