<?xml version="1.0" encoding="UTF-8" standalone="no"?>
<!-- Created with Inkscape (http://www.inkscape.org/) -->

<svg
   version="1.1"
   id="svg2"
   width="128"
   height="128.24733"
   viewBox="0 0 128 128.24733"
   xmlns="http://www.w3.org/2000/svg"
   xmlns:svg="http://www.w3.org/2000/svg">
  <defs
     id="defs6" />
  <g
     id="g8"
     transform="translate(0,0.57751458)">
    <path
       style="fill:#ffffff;stroke:#ffffff;stroke-width:1px;stroke-linecap:butt;stroke-linejoin:miter;stroke-opacity:1"
       d="m 22.976518,3.2401536 c 0,0 -0.40641,46.4552024 -1.38802,48.8549454 -0.9816,2.399743 -6.02654,19.324427 -6.02654,19.324427 l 6.59619,22.048623 -1.62043,19.865201 1.46664,8.52054 6.75943,2.58399 77.107392,-0.67678 3.20768,-9.75649 L 107.68691,32.086638 83.184448,31.17671 81.890278,3.2070718 c -59.13867,0.5009355 -58.91376,0.033082 -58.91376,0.033082 z"
       id="path346" />
    <path
       style="fill:#00ccca;fill-opacity:1;stroke:#00ccca;stroke-width:0.250001;stroke-opacity:1"
       d="m 21.508178,127.1412 c -0.48125,-0.20813 -1.2437,-0.73503 -1.69435,-1.1709 -1.51777,-1.468 -1.55565,-1.85909 -1.55565,-16.06476 V 97.112648 l -2.39665,-0.142988 c -3.73975,-0.223114 -5.8639804,-1.526146 -7.2019304,-4.417772 -0.52144,-1.126947 -0.52642,-1.327967 -0.52642,-21.262702 0,-22.666607 -0.0984,-21.455207 1.9196904,-23.64452 1.37415,-1.490777 3.06341,-2.150302 5.89281,-2.300692 l 2.3125,-0.122918 V 24.800497 c 0,-22.5760146 -0.0273,-22.1609407 1.55565,-23.6929584 1.72885,-1.67326692 -0.52621,-1.56835172 33.71025,-1.56835172 28.183766,0 31.092857,0.037223 31.695528,0.4055571 0.93443,0.5710978 25.613564,28.87739302 25.819584,29.61435502 0.093,0.332797 0.18037,3.992883 0.19407,8.133523 l 0.0249,7.528434 2.3125,0.122918 c 2.82941,0.15039 4.51867,0.809915 5.89282,2.300692 2.01803,2.189313 1.91968,0.977913 1.91968,23.64452 v 20.125001 l -0.69752,1.420399 c -1.3386,2.725852 -3.37508,3.91697 -7.07427,4.137669 l -2.35319,0.140393 v 12.792892 c 0,14.20536 -0.0379,14.59629 -1.55565,16.06529 -1.74554,1.68943 1.72068,1.56937 -44.998826,1.55857 -37.221366,-0.009 -42.425946,-0.0554 -43.195526,-0.3882 z m 84.689902,-18.03951 0.0649,-12.062504 H 64.760574 23.258188 v 11.958334 c 0,6.57708 0.0753,12.03366 0.1674,12.12574 0.0921,0.0921 18.73894,0.13894 41.437496,0.10416 l 41.270096,-0.0632 z M 42.133178,89.410691 c 2.97684,-0.44718 4.875,-1.032749 4.875,-1.503904 0,-0.371328 -0.96066,-5.568469 -1.11212,-6.016559 -0.0631,-0.18667 -0.67732,-0.117661 -1.92774,0.216578 -2.39209,0.639413 -7.24756,0.709187 -9.10347,0.130817 -3.04199,-0.947988 -5.37682,-2.790517 -6.6216,-5.225426 -1.86495,-3.648034 -1.89262,-9.226975 -0.0643,-12.963911 1.26643,-2.588471 4.06118,-4.718849 7.20425,-5.491623 1.88555,-0.463594 5.68458,-0.367139 7.875,0.19994 1.03125,0.266984 2.03071,0.52416 2.22102,0.571504 0.25075,0.06237 0.58443,-0.804928 1.21174,-3.149551 1.00159,-3.743489 1.06072,-3.57903 -1.51968,-4.227204 -4.01841,-1.009391 -9.10313,-1.014818 -13.09388,-0.01398 -5.55313,1.392674 -10.26313,5.271032 -12.47489,10.272213 -1.70109,3.84648 -2.19226,10.08283 -1.11633,14.174137 1.38509,5.266899 4.30113,8.948238 8.89702,11.231966 1.66482,0.82726 4.98586,1.792514 6.875,1.998204 2.12801,0.2317 5.57134,0.142849 7.875,-0.203205 z M 67.383174,89.16524 c 5.800069,-1.528629 8.870024,-4.807903 9.507019,-10.155232 0.348898,-2.92888 -0.966289,-6.351172 -3.219177,-8.376711 -1.682142,-1.512389 -2.823352,-2.149665 -6.860842,-3.831249 -5.01661,-2.089375 -6.11445,-2.88393 -6.44904,-4.667442 -0.19932,-1.062475 0.4774,-2.449792 1.50467,-3.084686 2.01389,-1.244645 6.23732,-1.187175 9.90197,0.134737 0.9815,0.354047 1.809792,0.606778 1.840646,0.561626 0.08641,-0.126451 1.60776,-5.771235 1.696418,-6.29435 0.176194,-1.039624 -4.648294,-2.203097 -9.171664,-2.211833 -5.21664,-0.01008 -8.53043,1.160702 -11.397856,4.02692 -1.9713,1.970467 -2.73198,3.674066 -2.91224,6.522167 -0.32453,5.127285 2.66721,8.683814 9.667986,11.493133 5.66697,2.274079 6.90908,3.363141 6.68976,5.865512 -0.15,1.711489 -1.46052,2.957622 -3.57325,3.397701 -2.62405,0.546584 -7.33358,-0.128286 -10.364336,-1.485196 -0.61021,-0.273202 -1.17834,-0.417848 -1.2625,-0.32144 -0.12945,0.14829 -1.72256,6.305042 -1.72256,6.65703 0,0.452392 5.080526,1.92297 7.749996,2.243264 1.72478,0.206946 6.90347,-0.08612 8.375,-0.473951 z m 30.000004,0.0018 c 6.406902,-1.68113 10.032572,-6.236096 9.554022,-12.002794 -0.20941,-2.523533 -1.02421,-4.23859 -2.90037,-6.104975 -1.82509,-1.815573 -3.2733,-2.665657 -7.45977,-4.378824 -4.869272,-1.992583 -6.108731,-2.966663 -6.157836,-4.839386 -0.04853,-1.850901 1.145615,-3.051359 3.547628,-3.566375 1.737207,-0.372475 5.469717,0.04849 7.888638,0.889708 0.96343,0.335046 1.77163,0.584581 1.79598,0.554516 0.23998,-0.296227 1.79593,-6.588647 1.66118,-6.717985 -0.31183,-0.299324 -3.11509,-1.158821 -4.80447,-1.473086 -2.330152,-0.433462 -7.025848,-0.374205 -9.099889,0.114837 -2.691172,0.634561 -4.823107,1.776105 -6.537357,3.500435 -2.478214,2.492781 -3.493284,5.517509 -2.938512,8.756236 0.755917,4.413025 3.688451,7.094747 10.825758,9.899857 4.037315,1.586749 5.499998,2.889455 5.499998,4.898453 0,3.146732 -3.259121,4.62299 -8.510851,3.855084 -1.132524,-0.165596 -2.971511,-0.63616 -4.086642,-1.045697 -1.115128,-0.409538 -2.190928,-0.766706 -2.390664,-0.793704 -0.268892,-0.03635 -0.57414,0.826713 -1.175958,3.324949 -0.44704,1.855724 -0.733618,3.451282 -0.636843,3.545688 0.387219,0.377725 4.221245,1.502894 6.259833,1.837069 2.647833,0.434046 7.533179,0.305671 9.666125,-0.254006 z m 8.875002,-50.120656 v -6.242803 l -11.619501,-0.0697 -11.619498,-0.0697 -0.693003,-0.693037 -0.692999,-0.693041 -0.06885,-13.36946 -0.06885,-13.3694621 H 52.376828 23.258178 V 24.914186 45.289188 h 41.499989 41.500003 z"
       id="path185" />
  </g>
</svg>
